<?xml version="1.0" encoding="utf-8"?>
<!-- Generator: Adobe Illustrator 16.0.4, SVG Export Plug-In . SVG Version: 6.00 Build 0)  -->
<!DOCTYPE svg PUBLIC "-//W3C//DTD SVG 1.1//EN" "http://www.w3.org/Graphics/SVG/1.1/DTD/svg11.dtd">
<svg version="1.1" id="Layer_1" xmlns="http://www.w3.org/2000/svg" xmlns:xlink="http://www.w3.org/1999/xlink" x="0px" y="0px"
	 width="453.54px" height="255.12px" viewBox="0 0 453.54 255.12" style="enable-background:new 0 0 453.54 255.12;"
	 xml:space="preserve">
<rect style="fill:#B5E1F5;" width="453.54" height="255.118"/>
<rect x="0.028" y="143.702" style="fill:#E9E6E4;" width="453.512" height="17.131"/>
<rect x="0.028" y="160.833" style="fill:#B0A19B;" width="453.512" height="2.854"/>
<polygon style="fill:#B5A6A0;" points="0.028,163.688 0.028,177.963 0.028,183.673 14.289,183.673 14.289,186.527 0.028,186.527 
	0.028,192.238 0.028,200.802 0.028,215.078 453.54,215.078 453.54,200.802 453.54,192.238 453.54,177.963 453.54,163.688 "/>
<rect x="0.028" y="215.078" style="fill:#B0A19B;" width="453.512" height="2.855"/>
<rect x="0.028" y="217.934" style="fill:#E9E6E4;" width="453.512" height="2.854"/>
<polygon style="fill:#A5D0EE;" points="413.608,7.342 416.461,7.342 416.461,10.187 425.02,10.187 425.02,7.342 427.872,7.342 
	427.872,58.552 413.608,58.552 "/>
<rect x="211.084" y="13.032" style="fill:#A5D0EE;" width="14.262" height="28.45"/>
<rect y="15.877" style="fill:#ADAEBA;" width="28.525" height="2.845"/>
<polygon style="fill:#A5D0EE;" points="231.05,15.876 259.575,15.876 259.575,21.566 253.871,21.566 253.871,35.792 256.723,35.792 
	256.723,41.481 231.05,41.481 "/>
<rect x="433.577" y="15.877" style="fill:#ADAEBA;" width="19.963" height="2.845"/>
<rect y="18.721" style="fill:#9698AB;" width="28.525" height="2.845"/>
<polygon style="fill:#A5D0EE;" points="290.953,18.722 333.741,18.722 333.741,52.862 322.33,52.862 322.33,58.552 316.626,58.552 
	316.626,35.792 319.477,35.792 319.477,27.257 290.953,27.257 "/>
<rect x="433.577" y="18.721" style="fill:#9698AB;" width="19.963" height="2.845"/>
<polygon style="fill:#8BB5D9;" points="0,21.566 0,27.257 2.852,27.257 2.852,38.637 0,38.637 0,44.327 2.852,44.327 2.852,55.708 
	0,55.708 0,61.396 2.852,61.396 2.852,72.776 0,72.776 0,78.467 2.852,78.467 2.852,89.847 0,89.847 0,95.536 2.852,95.536 
	2.852,106.917 0,106.917 0,112.606 2.852,112.606 2.852,123.986 0,123.986 0,138.212 25.673,138.212 25.673,21.566 "/>
<rect x="253.871" y="21.566" style="fill:#AA8BBF;" width="28.523" height="2.845"/>
<polygon style="fill:#A5D0EE;" points="345.149,21.566 348.003,21.566 348.003,24.412 350.854,24.412 350.854,27.256 
	353.707,27.256 353.707,30.102 356.561,30.102 356.561,32.946 359.412,32.946 359.412,58.551 348.003,58.551 348.003,52.861 
	345.149,52.861 "/>
<polygon style="fill:#8BB5D9;" points="436.43,21.566 436.43,58.553 442.135,58.553 442.135,61.396 447.839,61.396 447.839,72.776 
	442.135,72.776 442.135,67.086 439.281,67.086 439.281,138.212 453.54,138.212 453.54,123.986 450.691,123.986 450.691,112.606 
	453.54,112.606 453.54,106.917 450.691,106.917 450.691,95.536 453.54,95.536 453.54,89.847 450.691,89.847 450.691,78.467 
	453.54,78.467 453.54,72.776 450.691,72.776 450.691,61.396 453.54,61.396 453.54,55.708 450.691,55.708 450.691,44.327 
	453.54,44.327 453.54,38.637 450.691,38.637 450.691,27.257 453.54,27.257 453.54,21.566 "/>
<polygon style="fill:#A5D0EE;" points="45.64,24.411 82.722,24.411 82.722,41.481 54.197,41.481 54.197,30.102 45.64,30.102 "/>
<rect x="253.871" y="24.411" style="fill:#FECD4F;" width="28.523" height="2.846"/>
<rect y="27.257" style="fill:#D0EAF1;" width="2.852" height="11.38"/>
<rect x="5.705" y="27.257" style="fill:#D0EAF1;" width="5.705" height="11.38"/>
<rect x="14.262" y="27.257" style="fill:#D0EAF1;" width="5.705" height="11.38"/>
<rect x="142.624" y="27.257" style="fill:#A5D0EE;" width="14.262" height="31.295"/>
<rect x="253.871" y="27.257" style="fill:#CBC2B5;" width="65.604" height="2.845"/>
<rect x="367.969" y="27.257" style="fill:#A5D0EE;" width="42.788" height="31.295"/>
<rect x="442.135" y="27.257" style="fill:#D0EAF1;" width="5.704" height="11.38"/>
<rect x="450.692" y="27.257" style="fill:#D0EAF1;" width="2.848" height="11.38"/>
<rect x="25.672" y="30.102" style="fill:#B0A19B;" width="28.524" height="2.845"/>
<rect x="253.871" y="30.102" style="fill:#ADAEBA;" width="65.604" height="5.69"/>
<rect x="25.672" y="32.946" style="fill:#B2A7A4;" width="28.524" height="2.846"/>
<polygon style="fill:#A5D0EE;" points="88.426,32.946 134.066,32.946 134.066,52.861 116.951,52.861 116.951,58.551 111.247,58.551 
	111.247,50.016 114.099,50.016 114.099,41.481 111.247,41.481 111.247,35.792 91.279,35.792 91.279,41.481 88.426,41.481 "/>
<polygon style="fill:#A5D0EE;" points="165.444,32.946 208.231,32.946 208.231,41.481 191.117,41.481 191.117,47.172 
	193.969,47.172 193.969,58.551 165.444,58.551 "/>
<polygon style="fill:#D3C9BD;" points="25.672,35.792 34.229,35.792 34.229,58.552 45.639,58.552 45.639,38.637 39.935,38.637 
	39.935,35.792 54.196,35.792 54.196,135.366 25.672,135.366 "/>
<rect x="34.23" y="35.792" style="fill:#CBC2B5;" width="5.705" height="2.845"/>
<rect x="91.279" y="35.792" style="fill:#FECD4F;" width="19.968" height="5.689"/>
<polygon style="fill:#FECD4F;" points="256.723,35.792 316.626,35.792 316.626,138.212 256.723,138.212 256.723,47.172 
	259.576,47.172 259.576,55.707 273.838,55.707 273.838,38.637 259.576,38.637 259.576,41.481 256.723,41.481 "/>
<rect x="34.23" y="38.637" style="fill:#B0A19B;" width="11.41" height="5.689"/>
<rect x="259.575" y="38.637" style="fill:#AA8BBF;" width="14.263" height="17.07"/>
<rect x="279.542" y="38.637" style="fill:#AA8BBF;" width="14.264" height="17.07"/>
<rect x="299.511" y="38.637" style="fill:#AA8BBF;" width="14.263" height="17.07"/>
<rect x="54.197" y="41.481" style="fill:#C9D5DD;" width="59.902" height="2.845"/>
<rect x="191.117" y="41.481" style="fill:#ADAEBA;" width="68.458" height="2.845"/>
<rect x="262.429" y="41.481" style="fill:#A7C0CA;" width="8.557" height="11.38"/>
<rect x="282.396" y="41.481" style="fill:#A7C0CA;" width="8.558" height="11.38"/>
<rect x="302.361" y="41.481" style="fill:#A7C0CA;" width="8.558" height="11.38"/>
<rect y="44.326" style="fill:#D0EAF1;" width="2.852" height="11.381"/>
<rect x="5.705" y="44.326" style="fill:#D0EAF1;" width="5.705" height="11.381"/>
<rect x="14.262" y="44.326" style="fill:#D0EAF1;" width="5.705" height="11.381"/>
<rect x="34.23" y="44.326" style="fill:#B2A7A4;" width="11.41" height="11.381"/>
<rect x="54.197" y="44.326" style="fill:#B9C2C2;" width="59.902" height="2.846"/>
<rect x="191.117" y="44.326" style="fill:#9698AB;" width="68.458" height="2.846"/>
<rect x="442.135" y="44.326" style="fill:#D0EAF1;" width="5.704" height="11.381"/>
<rect x="450.692" y="44.326" style="fill:#D0EAF1;" width="2.848" height="11.381"/>
<rect x="54.197" y="47.172" style="fill:#BCB6B3;" width="59.902" height="2.845"/>
<polygon style="fill:#8BB5D9;" points="193.969,47.172 256.723,47.172 256.723,138.212 213.936,138.212 213.936,121.142 
	199.673,121.142 199.673,135.366 196.821,135.366 196.821,138.212 193.969,138.212 "/>
<rect x="54.197" y="50.016" style="fill:#FECD4F;" width="57.05" height="88.195"/>
<rect x="116.951" y="52.861" style="fill:#B0A19B;" width="25.673" height="2.846"/>
<rect x="199.673" y="52.861" style="fill:#D0EAF1;" width="22.82" height="11.38"/>
<rect x="228.199" y="52.861" style="fill:#D0EAF1;" width="22.817" height="11.38"/>
<rect x="322.33" y="52.861" style="fill:#B0A19B;" width="25.673" height="2.846"/>
<rect x="34.23" y="55.707" style="fill:#E3D9C7;" width="11.41" height="2.845"/>
<rect x="57.05" y="55.707" style="fill:#A7C0CA;" width="8.557" height="11.38"/>
<rect x="77.017" y="55.707" style="fill:#A7C0CA;" width="8.557" height="11.38"/>
<rect x="96.984" y="55.707" style="fill:#A7C0CA;" width="8.558" height="11.38"/>
<polygon style="fill:#B5A6A0;" points="116.951,55.707 119.805,55.707 119.805,58.552 139.772,58.552 139.772,55.707 
	142.624,55.707 142.624,61.396 116.951,61.396 "/>
<rect x="119.805" y="55.707" style="fill:#B7ABA3;" width="19.967" height="2.845"/>
<polygon style="fill:#B5A6A0;" points="322.33,55.707 325.184,55.707 325.184,58.552 345.149,58.552 345.149,55.707 348.003,55.707 
	348.003,61.396 322.33,61.396 "/>
<rect x="325.184" y="55.707" style="fill:#B7ABA3;" width="19.967" height="2.845"/>
<rect x="111.247" y="58.552" style="fill:#BCB6B3;" width="5.704" height="2.845"/>
<rect x="142.624" y="58.552" style="fill:#BCB6B3;" width="51.345" height="2.845"/>
<rect x="259.575" y="58.552" style="fill:#AA8BBF;" width="14.263" height="17.07"/>
<rect x="279.542" y="58.552" style="fill:#AA8BBF;" width="14.264" height="17.07"/>
<rect x="299.511" y="58.552" style="fill:#AA8BBF;" width="14.263" height="17.07"/>
<rect x="316.626" y="58.552" style="fill:#BCB6B3;" width="5.704" height="2.845"/>
<rect x="348.003" y="58.552" style="fill:#BCB6B3;" width="94.132" height="2.845"/>
<rect y="61.396" style="fill:#D0EAF1;" width="2.852" height="11.38"/>
<rect x="5.705" y="61.396" style="fill:#D0EAF1;" width="5.705" height="11.38"/>
<rect x="14.262" y="61.396" style="fill:#D0EAF1;" width="5.705" height="11.38"/>
<rect x="34.23" y="61.396" style="fill:#B0A19B;" width="11.41" height="5.69"/>
<rect x="111.247" y="61.396" style="fill:#B0A19B;" width="82.722" height="2.845"/>
<rect x="262.429" y="61.396" style="fill:#A7C0CA;" width="8.557" height="11.38"/>
<rect x="282.396" y="61.396" style="fill:#A7C0CA;" width="8.558" height="11.38"/>
<rect x="302.361" y="61.396" style="fill:#A7C0CA;" width="8.558" height="11.38"/>
<rect x="316.626" y="61.396" style="fill:#B0A19B;" width="125.509" height="2.845"/>
<rect x="442.135" y="61.396" style="fill:#D0EAF1;" width="5.704" height="11.38"/>
<rect x="450.692" y="61.396" style="fill:#D0EAF1;" width="2.848" height="11.38"/>
<rect x="111.247" y="64.241" style="fill:#B2A7A4;" width="82.722" height="2.846"/>
<rect x="316.626" y="64.241" style="fill:#B2A7A4;" width="125.509" height="2.846"/>
<rect x="34.23" y="67.087" style="fill:#B2A7A4;" width="11.41" height="11.38"/>
<rect x="57.05" y="67.087" style="fill:#AA8BBF;" width="8.557" height="2.845"/>
<rect x="77.017" y="67.087" style="fill:#AA8BBF;" width="8.557" height="2.845"/>
<rect x="96.984" y="67.087" style="fill:#AA8BBF;" width="8.558" height="2.845"/>
<polygon style="fill:#D3C9BD;" points="111.247,67.087 125.509,67.087 125.509,69.932 116.951,69.932 116.951,87.002 
	128.361,87.002 128.361,69.932 136.919,69.932 136.919,87.002 148.328,87.002 148.328,69.932 156.886,69.932 156.886,87.002 
	168.296,87.002 168.296,69.932 176.853,69.932 176.853,87.002 188.263,87.002 188.263,67.087 193.969,67.087 193.969,135.366 
	171.149,135.366 171.149,115.451 151.181,115.451 151.181,112.607 114.099,112.607 114.099,115.451 111.247,115.451 "/>
<rect x="125.509" y="67.087" style="fill:#CBC2B5;" width="62.754" height="2.845"/>
<polygon style="fill:#D3C9BD;" points="316.626,67.087 330.888,67.087 330.888,69.932 322.33,69.932 322.33,89.847 333.741,89.847 
	333.741,69.932 342.297,69.932 342.297,89.847 353.707,89.847 353.707,69.932 362.265,69.932 362.265,89.847 373.674,89.847 
	373.674,69.932 382.231,69.932 382.231,89.847 393.642,89.847 393.642,69.932 402.199,69.932 402.199,89.847 413.608,89.847 
	413.608,69.932 422.166,69.932 422.166,89.847 433.577,89.847 433.577,69.932 439.281,69.932 439.281,135.366 433.577,135.366 
	433.577,115.451 422.166,115.451 422.166,135.366 413.608,135.366 413.608,115.451 402.199,115.451 402.199,135.366 
	393.642,135.366 393.642,121.142 396.495,121.142 396.495,115.451 393.642,115.451 393.642,92.691 382.231,92.691 382.231,115.451 
	373.674,115.451 373.674,92.691 362.265,92.691 362.265,115.451 359.412,115.451 359.412,121.142 362.265,121.142 362.265,135.366 
	353.707,135.366 353.707,115.451 342.297,115.451 342.297,135.366 333.741,135.366 333.741,115.451 322.33,115.451 322.33,135.366 
	316.626,135.366 "/>
<rect x="330.888" y="67.087" style="fill:#CBC2B5;" width="108.395" height="2.845"/>
<rect x="116.951" y="69.932" style="fill:#B0A19B;" width="11.41" height="5.69"/>
<rect x="136.919" y="69.932" style="fill:#B0A19B;" width="11.41" height="5.69"/>
<rect x="156.886" y="69.932" style="fill:#B0A19B;" width="11.41" height="5.69"/>
<rect x="176.854" y="69.932" style="fill:#B0A19B;" width="11.41" height="5.69"/>
<rect x="199.673" y="69.932" style="fill:#D0EAF1;" width="22.82" height="11.38"/>
<rect x="228.199" y="69.932" style="fill:#D0EAF1;" width="22.817" height="11.38"/>
<rect x="322.33" y="69.932" style="fill:#B0A19B;" width="11.411" height="5.69"/>
<rect x="342.297" y="69.932" style="fill:#B0A19B;" width="11.41" height="5.69"/>
<rect x="362.265" y="69.932" style="fill:#B0A19B;" width="11.409" height="5.69"/>
<rect x="382.231" y="69.932" style="fill:#B0A19B;" width="11.409" height="5.69"/>
<rect x="402.199" y="69.932" style="fill:#B0A19B;" width="11.409" height="5.69"/>
<rect x="422.166" y="69.932" style="fill:#B0A19B;" width="11.411" height="5.69"/>
<rect x="57.05" y="75.622" style="fill:#A7C0CA;" width="8.557" height="11.38"/>
<rect x="77.017" y="75.622" style="fill:#A7C0CA;" width="8.557" height="11.38"/>
<rect x="96.984" y="75.622" style="fill:#A7C0CA;" width="8.558" height="11.38"/>
<rect x="116.951" y="75.622" style="fill:#BCB6B3;" width="11.41" height="2.845"/>
<rect x="136.919" y="75.622" style="fill:#BCB6B3;" width="11.41" height="2.845"/>
<rect x="156.886" y="75.622" style="fill:#BCB6B3;" width="11.41" height="2.845"/>
<rect x="176.854" y="75.622" style="fill:#BCB6B3;" width="11.41" height="2.845"/>
<rect x="322.33" y="75.622" style="fill:#B2A7A4;" width="11.411" height="11.38"/>
<rect x="342.297" y="75.622" style="fill:#B2A7A4;" width="11.41" height="11.38"/>
<rect x="362.265" y="75.622" style="fill:#B2A7A4;" width="11.409" height="11.38"/>
<rect x="382.231" y="75.622" style="fill:#B2A7A4;" width="11.409" height="11.38"/>
<rect x="402.199" y="75.622" style="fill:#B2A7A4;" width="11.409" height="11.38"/>
<rect x="422.166" y="75.622" style="fill:#B2A7A4;" width="11.411" height="11.38"/>
<rect y="78.467" style="fill:#D0EAF1;" width="2.852" height="11.38"/>
<rect x="5.705" y="78.467" style="fill:#D0EAF1;" width="5.705" height="11.38"/>
<rect x="14.262" y="78.467" style="fill:#D0EAF1;" width="5.705" height="11.38"/>
<rect x="34.23" y="78.467" style="fill:#E3D9C7;" width="11.41" height="2.845"/>
<rect x="116.951" y="78.467" style="fill:#B2A7A4;" width="11.41" height="8.535"/>
<rect x="136.919" y="78.467" style="fill:#B2A7A4;" width="11.41" height="8.535"/>
<rect x="156.886" y="78.467" style="fill:#B2A7A4;" width="11.41" height="8.535"/>
<rect x="176.854" y="78.467" style="fill:#B2A7A4;" width="11.41" height="8.535"/>
<rect x="259.575" y="78.467" style="fill:#AA8BBF;" width="14.263" height="17.069"/>
<rect x="279.542" y="78.467" style="fill:#AA8BBF;" width="14.264" height="17.069"/>
<rect x="299.511" y="78.467" style="fill:#AA8BBF;" width="14.263" height="17.069"/>
<rect x="442.135" y="78.467" style="fill:#D0EAF1;" width="5.704" height="11.38"/>
<rect x="450.692" y="78.467" style="fill:#D0EAF1;" width="2.848" height="11.38"/>
<rect x="262.429" y="81.311" style="fill:#A7C0CA;" width="8.557" height="11.38"/>
<rect x="282.396" y="81.311" style="fill:#A7C0CA;" width="8.558" height="11.38"/>
<rect x="302.361" y="81.311" style="fill:#A7C0CA;" width="8.558" height="11.38"/>
<rect x="34.23" y="87.002" style="fill:#B0A19B;" width="11.41" height="5.689"/>
<rect x="57.05" y="87.002" style="fill:#AA8BBF;" width="8.557" height="2.845"/>
<rect x="77.017" y="87.002" style="fill:#AA8BBF;" width="8.557" height="2.845"/>
<rect x="96.984" y="87.002" style="fill:#AA8BBF;" width="8.558" height="2.845"/>
<rect x="199.673" y="87.002" style="fill:#CAE7F1;" width="22.82" height="11.38"/>
<rect x="228.199" y="87.002" style="fill:#CAE7F1;" width="22.817" height="11.38"/>
<rect x="322.33" y="87.002" style="fill:#E3D9C7;" width="11.411" height="2.845"/>
<rect x="342.297" y="87.002" style="fill:#E3D9C7;" width="11.41" height="2.845"/>
<rect x="362.265" y="87.002" style="fill:#E3D9C7;" width="11.409" height="2.845"/>
<rect x="382.231" y="87.002" style="fill:#E3D9C7;" width="11.409" height="2.845"/>
<rect x="402.199" y="87.002" style="fill:#E3D9C7;" width="11.409" height="2.845"/>
<rect x="422.166" y="87.002" style="fill:#E3D9C7;" width="11.411" height="2.845"/>
<rect x="34.23" y="92.691" style="fill:#B2A7A4;" width="11.41" height="11.38"/>
<rect x="116.951" y="92.691" style="fill:#B0A19B;" width="11.41" height="5.69"/>
<rect x="136.919" y="92.691" style="fill:#B0A19B;" width="11.41" height="5.69"/>
<rect x="156.886" y="92.691" style="fill:#B0A19B;" width="11.41" height="5.69"/>
<rect x="176.854" y="92.691" style="fill:#B0A19B;" width="11.41" height="5.69"/>
<rect x="322.33" y="92.691" style="fill:#B0A19B;" width="11.411" height="5.69"/>
<rect x="342.297" y="92.691" style="fill:#B0A19B;" width="11.41" height="5.69"/>
<rect x="362.265" y="92.691" style="fill:#B0A19B;" width="11.409" height="5.69"/>
<rect x="382.231" y="92.691" style="fill:#B0A19B;" width="11.409" height="5.69"/>
<rect x="402.199" y="92.691" style="fill:#B0A19B;" width="11.409" height="5.69"/>
<rect x="422.166" y="92.691" style="fill:#B0A19B;" width="11.411" height="5.69"/>
<rect y="95.536" style="fill:#D0EAF1;" width="2.852" height="11.381"/>
<rect x="5.705" y="95.536" style="fill:#D0EAF1;" width="5.705" height="11.381"/>
<rect x="14.262" y="95.536" style="fill:#D0EAF1;" width="5.705" height="11.381"/>
<rect x="57.05" y="95.536" style="fill:#A7C0CA;" width="8.557" height="11.381"/>
<rect x="77.017" y="95.536" style="fill:#A7C0CA;" width="8.557" height="11.381"/>
<rect x="96.984" y="95.536" style="fill:#A7C0CA;" width="8.558" height="11.381"/>
<rect x="442.135" y="95.536" style="fill:#D0EAF1;" width="5.704" height="11.381"/>
<rect x="450.692" y="95.536" style="fill:#D0EAF1;" width="2.848" height="11.381"/>
<rect x="116.951" y="98.382" style="fill:#BCB6B3;" width="11.41" height="2.845"/>
<rect x="136.919" y="98.382" style="fill:#BCB6B3;" width="11.41" height="2.845"/>
<rect x="156.886" y="98.382" style="fill:#BCB6B3;" width="11.41" height="2.845"/>
<rect x="176.854" y="98.382" style="fill:#BCB6B3;" width="11.41" height="2.845"/>
<rect x="259.575" y="98.382" style="fill:#AA8BBF;" width="14.263" height="17.069"/>
<rect x="279.542" y="98.382" style="fill:#AA8BBF;" width="14.264" height="17.069"/>
<rect x="299.511" y="98.382" style="fill:#AA8BBF;" width="14.263" height="17.069"/>
<rect x="322.33" y="98.382" style="fill:#B2A7A4;" width="11.411" height="11.38"/>
<rect x="342.297" y="98.382" style="fill:#B2A7A4;" width="11.41" height="11.38"/>
<rect x="362.265" y="98.382" style="fill:#B2A7A4;" width="11.409" height="11.38"/>
<rect x="382.231" y="98.382" style="fill:#B2A7A4;" width="11.409" height="11.38"/>
<rect x="402.199" y="98.382" style="fill:#B2A7A4;" width="11.409" height="11.38"/>
<rect x="422.166" y="98.382" style="fill:#B2A7A4;" width="11.411" height="11.38"/>
<rect x="116.951" y="101.227" style="fill:#B2A7A4;" width="11.41" height="8.535"/>
<rect x="136.919" y="101.227" style="fill:#B2A7A4;" width="11.41" height="8.535"/>
<rect x="156.886" y="101.227" style="fill:#B2A7A4;" width="11.41" height="8.535"/>
<rect x="176.854" y="101.227" style="fill:#B2A7A4;" width="11.41" height="8.535"/>
<rect x="262.429" y="101.227" style="fill:#A7C0CA;" width="8.557" height="11.38"/>
<rect x="282.396" y="101.227" style="fill:#A7C0CA;" width="8.558" height="11.38"/>
<rect x="302.361" y="101.227" style="fill:#A7C0CA;" width="8.558" height="11.38"/>
<rect x="34.23" y="104.071" style="fill:#E3D9C7;" width="11.41" height="2.846"/>
<rect x="199.673" y="104.071" style="fill:#CAE7F1;" width="22.82" height="11.38"/>
<rect x="228.199" y="104.071" style="fill:#CAE7F1;" width="22.817" height="11.38"/>
<rect x="57.05" y="106.917" style="fill:#AA8BBF;" width="8.557" height="2.845"/>
<rect x="77.017" y="106.917" style="fill:#AA8BBF;" width="8.557" height="2.845"/>
<rect x="96.984" y="106.917" style="fill:#AA8BBF;" width="8.558" height="2.845"/>
<rect x="322.33" y="109.762" style="fill:#E3D9C7;" width="11.411" height="2.845"/>
<rect x="342.297" y="109.762" style="fill:#E3D9C7;" width="11.41" height="2.845"/>
<rect x="362.265" y="109.762" style="fill:#E3D9C7;" width="11.409" height="2.845"/>
<rect x="382.231" y="109.762" style="fill:#E3D9C7;" width="11.409" height="2.845"/>
<rect x="402.199" y="109.762" style="fill:#E3D9C7;" width="11.409" height="2.845"/>
<rect x="422.166" y="109.762" style="fill:#E3D9C7;" width="11.411" height="2.845"/>
<rect y="112.605" style="fill:#D0EAF1;" width="2.852" height="11.381"/>
<rect x="5.705" y="112.606" style="fill:#D0EAF1;" width="5.705" height="11.38"/>
<rect x="14.262" y="112.606" style="fill:#D0EAF1;" width="5.705" height="11.38"/>
<rect x="34.23" y="112.606" style="fill:#B0A19B;" width="11.41" height="5.69"/>
<rect x="114.099" y="112.606" style="fill:#BCB6B3;" width="2.852" height="2.845"/>
<polygon style="fill:#B698C7;" points="116.951,112.606 148.328,112.606 148.328,115.451 151.181,115.451 151.181,118.296 
	114.099,118.296 114.099,115.451 116.951,115.451 "/>
<rect x="148.329" y="112.606" style="fill:#BCB6B3;" width="2.853" height="2.845"/>
<rect x="362.265" y="112.606" style="fill:#BCB6B3;" width="2.854" height="2.845"/>
<polygon style="fill:#B698C7;" points="365.118,112.606 370.822,112.606 370.822,115.451 373.674,115.451 373.674,118.296 
	362.265,118.296 362.265,115.451 365.118,115.451 "/>
<rect x="370.822" y="112.606" style="fill:#BCB6B3;" width="2.852" height="2.845"/>
<rect x="382.231" y="112.606" style="fill:#BCB6B3;" width="2.853" height="2.845"/>
<polygon style="fill:#B698C7;" points="385.084,112.606 390.789,112.606 390.789,115.451 393.642,115.451 393.642,118.296 
	382.231,118.296 382.231,115.451 385.084,115.451 "/>
<rect x="390.789" y="112.606" style="fill:#BCB6B3;" width="2.853" height="2.845"/>
<rect x="442.135" y="112.606" style="fill:#D0EAF1;" width="5.704" height="11.38"/>
<rect x="450.692" y="112.605" style="fill:#D0EAF1;" width="2.848" height="11.381"/>
<rect x="57.05" y="115.451" style="fill:#A7C0CA;" width="8.557" height="11.381"/>
<rect x="77.017" y="115.451" style="fill:#A7C0CA;" width="8.557" height="11.381"/>
<rect x="96.984" y="115.451" style="fill:#A7C0CA;" width="8.558" height="11.381"/>
<rect x="111.247" y="115.451" style="fill:#BCB6B3;" width="2.852" height="2.846"/>
<rect x="151.182" y="115.451" style="fill:#BCB6B3;" width="2.853" height="2.846"/>
<polygon style="fill:#B0A19B;" points="154.034,115.451 171.149,115.451 171.149,138.212 193.969,138.212 193.969,143.901 
	111.247,143.901 111.247,138.212 154.034,138.212 "/>
<rect x="176.854" y="115.451" style="fill:#B0A19B;" width="11.41" height="5.69"/>
<rect x="322.33" y="115.451" style="fill:#B0A19B;" width="11.411" height="5.69"/>
<rect x="342.297" y="115.451" style="fill:#B0A19B;" width="11.41" height="5.69"/>
<rect x="359.412" y="115.451" style="fill:#BCB6B3;" width="2.853" height="2.846"/>
<rect x="373.674" y="115.451" style="fill:#BCB6B3;" width="2.854" height="2.846"/>
<rect x="376.526" y="115.451" style="fill:#B0A19B;" width="2.853" height="5.69"/>
<rect x="379.38" y="115.451" style="fill:#BCB6B3;" width="2.853" height="2.846"/>
<rect x="393.642" y="115.451" style="fill:#BCB6B3;" width="2.854" height="2.846"/>
<rect x="402.199" y="115.451" style="fill:#B0A19B;" width="11.409" height="5.69"/>
<rect x="422.166" y="115.451" style="fill:#B0A19B;" width="11.411" height="5.69"/>
<rect x="34.23" y="118.297" style="fill:#B2A7A4;" width="11.41" height="11.38"/>
<rect x="111.247" y="118.297" style="fill:#AA8BBF;" width="42.787" height="2.845"/>
<rect x="259.575" y="118.297" style="fill:#AA8BBF;" width="14.263" height="17.069"/>
<rect x="279.542" y="118.297" style="fill:#AA8BBF;" width="14.264" height="17.069"/>
<rect x="299.511" y="118.297" style="fill:#AA8BBF;" width="14.263" height="17.069"/>
<rect x="359.412" y="118.297" style="fill:#FECD4F;" width="17.114" height="2.845"/>
<rect x="379.38" y="118.297" style="fill:#FECD4F;" width="17.115" height="2.845"/>
<polygon style="fill:#D3C9BD;" points="111.247,121.142 116.951,121.142 116.951,132.521 148.328,132.521 148.328,121.142 
	154.034,121.142 154.034,135.366 111.247,135.366 "/>
<rect x="116.951" y="121.141" style="fill:#B0A19B;" width="31.377" height="2.845"/>
<rect x="176.854" y="121.141" style="fill:#BCB6B3;" width="11.41" height="2.845"/>
<polygon style="fill:#9698AB;" points="199.673,121.142 213.937,121.142 213.937,138.212 256.723,138.212 256.723,143.901 
	193.969,143.901 193.969,138.212 199.673,138.212 "/>
<rect x="216.789" y="121.141" style="fill:#CAE7F1;" width="34.229" height="14.225"/>
<rect x="262.429" y="121.141" style="fill:#A7C0CA;" width="8.557" height="11.38"/>
<rect x="282.396" y="121.141" style="fill:#A7C0CA;" width="8.558" height="11.38"/>
<rect x="302.361" y="121.141" style="fill:#A7C0CA;" width="8.558" height="11.38"/>
<rect x="322.33" y="121.141" style="fill:#B2A7A4;" width="11.411" height="11.38"/>
<rect x="342.297" y="121.141" style="fill:#B2A7A4;" width="11.41" height="11.38"/>
<polygon style="fill:#B0A19B;" points="362.265,121.142 373.674,121.142 373.674,138.212 382.231,138.212 382.231,121.142 
	393.642,121.142 393.642,138.212 439.281,138.212 439.281,143.901 316.626,143.901 316.626,138.212 362.265,138.212 "/>
<polygon style="fill:#D3C9BD;" points="373.674,121.142 376.526,121.142 376.526,123.987 379.38,123.987 379.38,121.142 
	382.231,121.142 382.231,135.366 373.674,135.366 "/>
<rect x="376.526" y="121.141" style="fill:#C4B9B0;" width="2.853" height="2.845"/>
<rect x="402.199" y="121.141" style="fill:#B2A7A4;" width="11.409" height="11.38"/>
<rect x="422.166" y="121.141" style="fill:#B2A7A4;" width="11.411" height="11.38"/>
<rect x="116.951" y="123.986" style="fill:#B2A7A4;" width="31.377" height="8.535"/>
<rect x="176.854" y="123.986" style="fill:#B2A7A4;" width="11.41" height="8.535"/>
<rect x="57.05" y="126.832" style="fill:#AA8BBF;" width="8.557" height="2.845"/>
<rect x="77.017" y="126.832" style="fill:#AA8BBF;" width="8.557" height="2.845"/>
<rect x="96.984" y="126.832" style="fill:#AA8BBF;" width="8.558" height="2.845"/>
<rect x="34.23" y="129.677" style="fill:#E3D9C7;" width="11.41" height="2.846"/>
<rect x="322.33" y="132.521" style="fill:#E3D9C7;" width="11.411" height="2.845"/>
<rect x="342.297" y="132.521" style="fill:#E3D9C7;" width="11.41" height="2.845"/>
<rect x="402.199" y="132.521" style="fill:#E3D9C7;" width="11.409" height="2.845"/>
<rect x="422.166" y="132.521" style="fill:#E3D9C7;" width="11.411" height="2.845"/>
<rect x="25.672" y="135.366" style="fill:#B0A19B;" width="28.524" height="8.535"/>
<rect x="111.247" y="135.366" style="fill:#C4B9B0;" width="42.787" height="2.846"/>
<rect x="171.149" y="135.366" style="fill:#C4B9B0;" width="22.819" height="2.846"/>
<rect x="196.821" y="135.366" style="fill:#8FBBE3;" width="2.852" height="2.846"/>
<rect x="316.626" y="135.366" style="fill:#C4B9B0;" width="45.639" height="2.846"/>
<rect x="373.674" y="135.366" style="fill:#C4B9B0;" width="8.559" height="2.846"/>
<rect x="393.642" y="135.366" style="fill:#C4B9B0;" width="45.641" height="2.846"/>
<rect y="138.212" style="fill:#9698AB;" width="25.673" height="5.69"/>
<rect x="54.197" y="138.212" style="fill:#AA8BBF;" width="57.05" height="5.689"/>
<rect x="256.723" y="138.212" style="fill:#AA8BBF;" width="59.903" height="5.689"/>
<rect x="439.281" y="138.212" style="fill:#9698AB;" width="14.259" height="5.69"/>
<rect x="0.028" y="183.672" style="fill:#EFECEB;" width="14.261" height="2.855"/>
<rect x="28.551" y="183.673" style="fill:#EFECEB;" width="14.261" height="2.854"/>
<rect x="57.074" y="183.673" style="fill:#EFECEB;" width="14.261" height="2.854"/>
<rect x="85.596" y="183.673" style="fill:#EFECEB;" width="14.262" height="2.854"/>
<rect x="114.119" y="183.673" style="fill:#EFECEB;" width="14.261" height="2.854"/>
<rect x="142.642" y="183.673" style="fill:#EFECEB;" width="14.262" height="2.854"/>
<rect x="171.165" y="183.673" style="fill:#EFECEB;" width="14.261" height="2.854"/>
<rect x="199.687" y="183.673" style="fill:#EFECEB;" width="14.261" height="2.854"/>
<rect x="228.21" y="183.673" style="fill:#EFECEB;" width="14.262" height="2.854"/>
<rect x="256.732" y="183.673" style="fill:#EFECEB;" width="14.262" height="2.854"/>
<rect x="285.256" y="183.673" style="fill:#EFECEB;" width="14.261" height="2.854"/>
<rect x="313.779" y="183.673" style="fill:#EFECEB;" width="14.261" height="2.854"/>
<rect x="342.302" y="183.673" style="fill:#EFECEB;" width="14.263" height="2.854"/>
<rect x="370.824" y="183.673" style="fill:#EFECEB;" width="14.262" height="2.854"/>
<rect x="399.347" y="183.673" style="fill:#EFECEB;" width="14.263" height="2.854"/>
<rect x="427.87" y="183.673" style="fill:#EFECEB;" width="14.261" height="2.854"/>
<rect x="0.028" y="220.788" style="fill:#EFECEB;" width="453.512" height="34.26"/>
</svg>
