<?xml version="1.0" encoding="utf-8"?>
<!-- Generator: Adobe Illustrator 20.1.0, SVG Export Plug-In . SVG Version: 6.00 Build 0)  -->
<svg version="1.1" id="Capa_1" xmlns="http://www.w3.org/2000/svg" xmlns:xlink="http://www.w3.org/1999/xlink" x="0px" y="0px"
	 viewBox="0 0 151.7 153.6" style="enable-background:new 0 0 151.7 153.6;" xml:space="preserve">
<style type="text/css">
	.st0{fill:#FFFFFF;}
	.st1{enable-background:new    ;}
	.st2{fill:#424242;}
</style>
<g>
	<path class="st0" d="M151.7,22.4v72.9c0,9.4-7.6,17-17,17l-58.9,0.2l-34.5,37.9v-37.9H17c-9.4,0-17-7.6-17-17V22.7
		c0-9.4,7.6-17,17-17l117.7-0.2C144.1,5.4,151.7,13,151.7,22.4z"/>
</g>
<g class="st1">
	<path class="st2" d="M32.9,65.1c0-0.4-0.1-0.8-0.2-1.2c-0.1-0.3-0.4-0.7-0.7-0.9s-0.8-0.6-1.5-0.9c-0.6-0.3-1.4-0.6-2.4-0.9
		c-1.1-0.4-2.2-0.8-3.2-1.2c-1-0.4-1.9-1-2.6-1.6c-0.7-0.6-1.3-1.3-1.8-2.1c-0.4-0.8-0.6-1.7-0.6-2.8c0-1,0.2-1.9,0.7-2.8
		c0.4-0.8,1.1-1.6,1.9-2.2c0.8-0.6,1.8-1.1,2.9-1.4c1.1-0.3,2.3-0.5,3.6-0.5c1.4,0,2.6,0.2,3.7,0.6s2.1,0.9,2.8,1.6
		c0.8,0.7,1.4,1.5,1.8,2.4c0.4,0.9,0.6,1.9,0.6,3h-5c0-0.5-0.1-1-0.2-1.4s-0.4-0.8-0.7-1.1c-0.3-0.3-0.8-0.6-1.3-0.7
		s-1.1-0.3-1.8-0.3c-0.7,0-1.2,0.1-1.7,0.2s-0.9,0.3-1.2,0.6c-0.3,0.3-0.6,0.6-0.7,0.9c-0.2,0.3-0.2,0.7-0.2,1.1
		c0,0.8,0.4,1.5,1.2,2c0.8,0.5,2,1,3.6,1.5c1.3,0.4,2.5,0.9,3.5,1.4c1,0.5,1.9,1.1,2.5,1.7c0.7,0.6,1.2,1.4,1.5,2.1
		c0.3,0.8,0.5,1.7,0.5,2.7c0,1.1-0.2,2-0.6,2.9c-0.4,0.8-1,1.5-1.8,2.1c-0.8,0.6-1.7,1-2.8,1.3c-1.1,0.3-2.3,0.5-3.7,0.5
		c-0.8,0-1.6-0.1-2.4-0.2s-1.6-0.4-2.3-0.6s-1.4-0.7-2-1.1s-1.2-1-1.6-1.5c-0.5-0.6-0.8-1.3-1.1-2c-0.3-0.8-0.4-1.6-0.4-2.5h5.1
		c0,0.7,0.1,1.4,0.4,1.9c0.2,0.5,0.6,0.9,1,1.2c0.4,0.3,0.9,0.6,1.5,0.7c0.6,0.1,1.3,0.2,2,0.2c0.6,0,1.2-0.1,1.7-0.2
		c0.5-0.1,0.9-0.3,1.2-0.6c0.3-0.2,0.5-0.5,0.7-0.9C32.8,65.9,32.9,65.5,32.9,65.1z"/>
	<path class="st2" d="M55.1,66.5h-8.8l-1.7,5h-5.4l9.1-24.4H53l9.1,24.4h-5.4L55.1,66.5z M47.6,62.4h6.1l-3.1-9.1L47.6,62.4z"/>
	<path class="st2" d="M70.4,58.1l5.1-11h5.5l-8,15.6v8.9h-5.1v-8.9l-8-15.6h5.5L70.4,58.1z"/>
	<path class="st2" d="M111.6,71.5h-5V61.1h-9.8v10.5h-5V47.1h5V57h9.8v-9.9h5V71.5z"/>
	<path class="st2" d="M121.4,71.5h-5V47.1h5V71.5z"/>
	<path class="st2" d="M126,69.3c0-0.4,0.1-0.7,0.2-1c0.1-0.3,0.3-0.6,0.5-0.8c0.2-0.2,0.5-0.4,0.8-0.5c0.3-0.1,0.7-0.2,1.1-0.2
		c0.4,0,0.8,0.1,1.1,0.2c0.3,0.1,0.6,0.3,0.9,0.5s0.4,0.5,0.5,0.8s0.2,0.7,0.2,1s-0.1,0.7-0.2,1c-0.1,0.3-0.3,0.6-0.5,0.8
		c-0.2,0.2-0.5,0.4-0.9,0.5c-0.3,0.1-0.7,0.2-1.1,0.2c-0.4,0-0.8-0.1-1.1-0.2c-0.3-0.1-0.6-0.3-0.8-0.5c-0.2-0.2-0.4-0.5-0.5-0.8
		C126,70,126,69.6,126,69.3z M130.7,64h-4l-0.6-16.9h5.2L130.7,64z"/>
</g>
</svg>
