<?xml version="1.0" encoding="utf-8"?>
<!-- Generator: Adobe Illustrator 16.0.4, SVG Export Plug-In . SVG Version: 6.00 Build 0)  -->
<!DOCTYPE svg PUBLIC "-//W3C//DTD SVG 1.1//EN" "http://www.w3.org/Graphics/SVG/1.1/DTD/svg11.dtd">
<svg version="1.1" id="Layer_1" xmlns="http://www.w3.org/2000/svg" xmlns:xlink="http://www.w3.org/1999/xlink" x="0px" y="0px"
	 width="91.123px" height="296.147px" viewBox="0 0 91.123 296.147" style="enable-background:new 0 0 91.123 296.147;"
	 xml:space="preserve">
<rect x="11.39" y="34.171" style="fill:#FCCFAC;" width="68.342" height="79.732"/>
<rect x="45.561" y="79.732" style="fill:#F6A7AB;" width="22.78" height="22.781"/>
<rect x="22.78" y="56.951" width="11.391" height="11.391"/>
<rect x="56.951" y="56.951" width="11.391" height="11.391"/>
<g>
	<rect y="68.342" style="fill:#3C2417;" width="11.39" height="22.781"/>
	<rect y="56.951" style="fill:#FCCFAC;" width="11.39" height="11.391"/>
</g>
<g>
	<rect x="79.732" y="68.342" style="fill:#3C2417;" width="11.391" height="22.781"/>
	<rect x="79.732" y="56.951" style="fill:#FCCFAC;" width="11.391" height="11.391"/>
</g>
<polygon style="fill:#95CAE8;" points="79.732,125.294 11.39,125.294 0,125.294 0,148.074 11.39,148.074 11.39,216.416 
	79.732,216.416 79.732,148.074 91.123,148.074 91.123,125.294 "/>
<rect y="148.074" style="fill:#FCCFAC;" width="11.39" height="68.342"/>
<rect x="79.732" y="148.074" style="fill:#FCCFAC;" width="11.391" height="68.342"/>
<polygon style="fill:#2B4B61;" points="56.951,216.416 56.951,216.415 34.171,216.415 34.171,216.416 11.39,216.416 11.39,284.757 
	34.171,284.757 34.171,227.805 56.951,227.805 56.951,284.757 79.732,284.757 79.732,216.416 "/>
<rect x="56.951" y="284.756" width="34.172" height="11.391"/>
<rect y="284.756" width="34.171" height="11.391"/>
<polygon style="fill:#3C2417;" points="79.732,22.781 79.732,11.391 68.341,11.391 68.341,0 34.171,0 34.171,11.391 11.39,11.391 
	11.39,22.781 0,22.781 0,56.951 11.39,56.951 11.39,34.171 79.732,34.171 79.732,56.951 91.123,56.951 91.123,22.781 "/>
<rect x="34.171" y="113.903" style="fill:#FCCFAC;" width="22.779" height="22.78"/>
</svg>
